<svg id="visual" viewBox="0 0 1440 800" width="1440" height="800" xmlns="http://www.w3.org/2000/svg" xmlns:xlink="http://www.w3.org/1999/xlink" version="1.1"><path d="M0 378L18.5 366.8C37 355.7 74 333.3 111 334.7C148 336 185 361 221.8 370.7C258.7 380.3 295.3 374.7 332.2 365.2C369 355.7 406 342.3 443 341.3C480 340.3 517 351.7 554 360.2C591 368.7 628 374.3 664.8 376.3C701.7 378.3 738.3 376.7 775.2 374.7C812 372.7 849 370.3 886 364.5C923 358.7 960 349.3 997 351C1034 352.7 1071 365.3 1107.8 370.3C1144.7 375.3 1181.3 372.7 1218.2 364.5C1255 356.3 1292 342.7 1329 333.7C1366 324.7 1403 320.3 1421.5 318.2L1440 316L1440 0L1421.5 0C1403 0 1366 0 1329 0C1292 0 1255 0 1218.2 0C1181.3 0 1144.7 0 1107.8 0C1071 0 1034 0 997 0C960 0 923 0 886 0C849 0 812 0 775.2 0C738.3 0 701.7 0 664.8 0C628 0 591 0 554 0C517 0 480 0 443 0C406 0 369 0 332.2 0C295.3 0 258.7 0 221.8 0C185 0 148 0 111 0C74 0 37 0 18.5 0L0 0Z" fill="#061825"></path><path d="M0 332L18.5 334.2C37 336.3 74 340.7 111 333.7C148 326.7 185 308.3 221.8 299.3C258.7 290.3 295.3 290.7 332.2 287.5C369 284.3 406 277.7 443 280.5C480 283.3 517 295.7 554 294.8C591 294 628 280 664.8 274.8C701.7 269.7 738.3 273.3 775.2 283.3C812 293.3 849 309.7 886 308.7C923 307.7 960 289.3 997 283.5C1034 277.7 1071 284.3 1107.8 294.7C1144.7 305 1181.3 319 1218.2 325.3C1255 331.7 1292 330.3 1329 324.2C1366 318 1403 307 1421.5 301.5L1440 296L1440 0L1421.5 0C1403 0 1366 0 1329 0C1292 0 1255 0 1218.2 0C1181.3 0 1144.7 0 1107.8 0C1071 0 1034 0 997 0C960 0 923 0 886 0C849 0 812 0 775.2 0C738.3 0 701.7 0 664.8 0C628 0 591 0 554 0C517 0 480 0 443 0C406 0 369 0 332.2 0C295.3 0 258.7 0 221.8 0C185 0 148 0 111 0C74 0 37 0 18.5 0L0 0Z" fill="#082938"></path><path d="M0 258L18.5 254.3C37 250.7 74 243.3 111 238.7C148 234 185 232 221.8 235.3C258.7 238.7 295.3 247.3 332.2 250.7C369 254 406 252 443 252.3C480 252.7 517 255.3 554 260.3C591 265.3 628 272.7 664.8 280.8C701.7 289 738.3 298 775.2 298.7C812 299.3 849 291.7 886 279.2C923 266.7 960 249.3 997 252.3C1034 255.3 1071 278.7 1107.8 282.5C1144.7 286.3 1181.3 270.7 1218.2 261.8C1255 253 1292 251 1329 254C1366 257 1403 265 1421.5 269L1440 273L1440 0L1421.5 0C1403 0 1366 0 1329 0C1292 0 1255 0 1218.2 0C1181.3 0 1144.7 0 1107.8 0C1071 0 1034 0 997 0C960 0 923 0 886 0C849 0 812 0 775.2 0C738.3 0 701.7 0 664.8 0C628 0 591 0 554 0C517 0 480 0 443 0C406 0 369 0 332.2 0C295.3 0 258.7 0 221.8 0C185 0 148 0 111 0C74 0 37 0 18.5 0L0 0Z" fill="#063b4c"></path><path d="M0 229L18.5 231.8C37 234.7 74 240.3 111 240.5C148 240.7 185 235.3 221.8 234.3C258.7 233.3 295.3 236.7 332.2 240.5C369 244.3 406 248.7 443 250.8C480 253 517 253 554 255.2C591 257.3 628 261.7 664.8 261.8C701.7 262 738.3 258 775.2 252.8C812 247.7 849 241.3 886 231.2C923 221 960 207 997 201.5C1034 196 1071 199 1107.8 200.8C1144.7 202.7 1181.3 203.3 1218.2 208.3C1255 213.3 1292 222.7 1329 221.2C1366 219.7 1403 207.3 1421.5 201.2L1440 195L1440 0L1421.5 0C1403 0 1366 0 1329 0C1292 0 1255 0 1218.2 0C1181.3 0 1144.7 0 1107.8 0C1071 0 1034 0 997 0C960 0 923 0 886 0C849 0 812 0 775.2 0C738.3 0 701.7 0 664.8 0C628 0 591 0 554 0C517 0 480 0 443 0C406 0 369 0 332.2 0C295.3 0 258.7 0 221.8 0C185 0 148 0 111 0C74 0 37 0 18.5 0L0 0Z" fill="#024e5e"></path><path d="M0 204L18.5 203.5C37 203 74 202 111 204.2C148 206.3 185 211.7 221.8 212.7C258.7 213.7 295.3 210.3 332.2 203.3C369 196.3 406 185.7 443 185.7C480 185.7 517 196.3 554 193.7C591 191 628 175 664.8 166.2C701.7 157.3 738.3 155.7 775.2 158.2C812 160.7 849 167.3 886 173.2C923 179 960 184 997 187.7C1034 191.3 1071 193.7 1107.8 192.2C1144.7 190.7 1181.3 185.3 1218.2 179.3C1255 173.3 1292 166.7 1329 163.5C1366 160.3 1403 160.7 1421.5 160.8L1440 161L1440 0L1421.5 0C1403 0 1366 0 1329 0C1292 0 1255 0 1218.2 0C1181.3 0 1144.7 0 1107.8 0C1071 0 1034 0 997 0C960 0 923 0 886 0C849 0 812 0 775.2 0C738.3 0 701.7 0 664.8 0C628 0 591 0 554 0C517 0 480 0 443 0C406 0 369 0 332.2 0C295.3 0 258.7 0 221.8 0C185 0 148 0 111 0C74 0 37 0 18.5 0L0 0Z" fill="#00626e"></path><path d="M0 167L18.5 167.2C37 167.3 74 167.7 111 165.7C148 163.7 185 159.3 221.8 154C258.7 148.7 295.3 142.3 332.2 142.7C369 143 406 150 443 158.3C480 166.7 517 176.3 554 177C591 177.7 628 169.3 664.8 160.8C701.7 152.3 738.3 143.7 775.2 148C812 152.3 849 169.7 886 167.2C923 164.7 960 142.3 997 142.2C1034 142 1071 164 1107.8 174.5C1144.7 185 1181.3 184 1218.2 174C1255 164 1292 145 1329 138.8C1366 132.7 1403 139.3 1421.5 142.7L1440 146L1440 0L1421.5 0C1403 0 1366 0 1329 0C1292 0 1255 0 1218.2 0C1181.3 0 1144.7 0 1107.8 0C1071 0 1034 0 997 0C960 0 923 0 886 0C849 0 812 0 775.2 0C738.3 0 701.7 0 664.8 0C628 0 591 0 554 0C517 0 480 0 443 0C406 0 369 0 332.2 0C295.3 0 258.7 0 221.8 0C185 0 148 0 111 0C74 0 37 0 18.5 0L0 0Z" fill="#0b777c"></path><path d="M0 123L18.5 120.5C37 118 74 113 111 114.7C148 116.3 185 124.7 221.8 130.2C258.7 135.7 295.3 138.3 332.2 139.2C369 140 406 139 443 133.7C480 128.3 517 118.7 554 120.3C591 122 628 135 664.8 133.7C701.7 132.3 738.3 116.7 775.2 112.2C812 107.7 849 114.3 886 115.8C923 117.3 960 113.7 997 115C1034 116.3 1071 122.7 1107.8 122.2C1144.7 121.7 1181.3 114.3 1218.2 113.2C1255 112 1292 117 1329 120.7C1366 124.3 1403 126.7 1421.5 127.8L1440 129L1440 0L1421.5 0C1403 0 1366 0 1329 0C1292 0 1255 0 1218.2 0C1181.3 0 1144.7 0 1107.8 0C1071 0 1034 0 997 0C960 0 923 0 886 0C849 0 812 0 775.2 0C738.3 0 701.7 0 664.8 0C628 0 591 0 554 0C517 0 480 0 443 0C406 0 369 0 332.2 0C295.3 0 258.7 0 221.8 0C185 0 148 0 111 0C74 0 37 0 18.5 0L0 0Z" fill="#208c89"></path><path d="M0 62L18.5 63.3C37 64.7 74 67.3 111 67.8C148 68.3 185 66.7 221.8 62.7C258.7 58.7 295.3 52.3 332.2 50.7C369 49 406 52 443 61.5C480 71 517 87 554 96C591 105 628 107 664.8 105.2C701.7 103.3 738.3 97.7 775.2 87.3C812 77 849 62 886 62.3C923 62.7 960 78.3 997 88.3C1034 98.3 1071 102.7 1107.8 95.2C1144.7 87.7 1181.3 68.3 1218.2 59C1255 49.7 1292 50.3 1329 49.7C1366 49 1403 47 1421.5 46L1440 45L1440 0L1421.5 0C1403 0 1366 0 1329 0C1292 0 1255 0 1218.2 0C1181.3 0 1144.7 0 1107.8 0C1071 0 1034 0 997 0C960 0 923 0 886 0C849 0 812 0 775.2 0C738.3 0 701.7 0 664.8 0C628 0 591 0 554 0C517 0 480 0 443 0C406 0 369 0 332.2 0C295.3 0 258.7 0 221.8 0C185 0 148 0 111 0C74 0 37 0 18.5 0L0 0Z" fill="#37a192"></path><path d="M0 39L18.5 43.5C37 48 74 57 111 58.8C148 60.7 185 55.3 221.8 51.5C258.7 47.7 295.3 45.3 332.2 42C369 38.7 406 34.3 443 33.7C480 33 517 36 554 41C591 46 628 53 664.8 51.8C701.7 50.7 738.3 41.3 775.2 34.3C812 27.3 849 22.7 886 25.2C923 27.7 960 37.3 997 39.5C1034 41.7 1071 36.3 1107.8 38.7C1144.7 41 1181.3 51 1218.2 51C1255 51 1292 41 1329 42.5C1366 44 1403 57 1421.5 63.5L1440 70L1440 0L1421.5 0C1403 0 1366 0 1329 0C1292 0 1255 0 1218.2 0C1181.3 0 1144.7 0 1107.8 0C1071 0 1034 0 997 0C960 0 923 0 886 0C849 0 812 0 775.2 0C738.3 0 701.7 0 664.8 0C628 0 591 0 554 0C517 0 480 0 443 0C406 0 369 0 332.2 0C295.3 0 258.7 0 221.8 0C185 0 148 0 111 0C74 0 37 0 18.5 0L0 0Z" fill="#52b69a"></path></svg>