<svg id="visual" viewBox="0 0 1440 1200" width="1440" height="1200" xmlns="http://www.w3.org/2000/svg" xmlns:xlink="http://www.w3.org/1999/xlink" version="1.1"><rect x="0" y="0" width="1440" height="1200" fill="#34A0A4"></rect><path d="M0 848L30 856C60 864 120 880 180 887.8C240 895.7 300 895.3 360 891.3C420 887.3 480 879.7 540 881.7C600 883.7 660 895.3 720 904.8C780 914.3 840 921.7 900 919.2C960 916.7 1020 904.3 1080 899.7C1140 895 1200 898 1260 890.5C1320 883 1380 865 1410 856L1440 847L1440 1201L1410 1201C1380 1201 1320 1201 1260 1201C1200 1201 1140 1201 1080 1201C1020 1201 960 1201 900 1201C840 1201 780 1201 720 1201C660 1201 600 1201 540 1201C480 1201 420 1201 360 1201C300 1201 240 1201 180 1201C120 1201 60 1201 30 1201L0 1201Z" fill="#76c893"></path><path d="M0 930L30 937C60 944 120 958 180 951.5C240 945 300 918 360 917.2C420 916.3 480 941.7 540 943.8C600 946 660 925 720 923.2C780 921.3 840 938.7 900 935.7C960 932.7 1020 909.3 1080 899.8C1140 890.3 1200 894.7 1260 894.5C1320 894.3 1380 889.7 1410 887.3L1440 885L1440 1201L1410 1201C1380 1201 1320 1201 1260 1201C1200 1201 1140 1201 1080 1201C1020 1201 960 1201 900 1201C840 1201 780 1201 720 1201C660 1201 600 1201 540 1201C480 1201 420 1201 360 1201C300 1201 240 1201 180 1201C120 1201 60 1201 30 1201L0 1201Z" fill="#51b999"></path><path d="M0 969L30 964.3C60 959.7 120 950.3 180 947.7C240 945 300 949 360 949.5C420 950 480 947 540 957.5C600 968 660 992 720 989.7C780 987.3 840 958.7 900 942.8C960 927 1020 924 1080 926.3C1140 928.7 1200 936.3 1260 936.7C1320 937 1380 930 1410 926.5L1440 923L1440 1201L1410 1201C1380 1201 1320 1201 1260 1201C1200 1201 1140 1201 1080 1201C1020 1201 960 1201 900 1201C840 1201 780 1201 720 1201C660 1201 600 1201 540 1201C480 1201 420 1201 360 1201C300 1201 240 1201 180 1201C120 1201 60 1201 30 1201L0 1201Z" fill="#2ea89d"></path><path d="M0 1040L30 1042.2C60 1044.3 120 1048.7 180 1047.3C240 1046 300 1039 360 1027.2C420 1015.3 480 998.7 540 994.8C600 991 660 1000 720 999.8C780 999.7 840 990.3 900 995.8C960 1001.3 1020 1021.7 1080 1020.7C1140 1019.7 1200 997.3 1260 983.8C1320 970.3 1380 965.7 1410 963.3L1440 961L1440 1201L1410 1201C1380 1201 1320 1201 1260 1201C1200 1201 1140 1201 1080 1201C1020 1201 960 1201 900 1201C840 1201 780 1201 720 1201C660 1201 600 1201 540 1201C480 1201 420 1201 360 1201C300 1201 240 1201 180 1201C120 1201 60 1201 30 1201L0 1201Z" fill="#0b979d"></path><path d="M0 1020L30 1024.8C60 1029.7 120 1039.3 180 1042.2C240 1045 300 1041 360 1033.7C420 1026.3 480 1015.7 540 1013.8C600 1012 660 1019 720 1029.5C780 1040 840 1054 900 1051C960 1048 1020 1028 1080 1028.5C1140 1029 1200 1050 1260 1059.3C1320 1068.7 1380 1066.3 1410 1065.2L1440 1064L1440 1201L1410 1201C1380 1201 1320 1201 1260 1201C1200 1201 1140 1201 1080 1201C1020 1201 960 1201 900 1201C840 1201 780 1201 720 1201C660 1201 600 1201 540 1201C480 1201 420 1201 360 1201C300 1201 240 1201 180 1201C120 1201 60 1201 30 1201L0 1201Z" fill="#008598"></path><path d="M0 1106L30 1099C60 1092 120 1078 180 1074.7C240 1071.3 300 1078.7 360 1081.8C420 1085 480 1084 540 1088.3C600 1092.7 660 1102.3 720 1095.2C780 1088 840 1064 900 1058.3C960 1052.7 1020 1065.3 1080 1076.5C1140 1087.7 1200 1097.3 1260 1091C1320 1084.7 1380 1062.3 1410 1051.2L1440 1040L1440 1201L1410 1201C1380 1201 1320 1201 1260 1201C1200 1201 1140 1201 1080 1201C1020 1201 960 1201 900 1201C840 1201 780 1201 720 1201C660 1201 600 1201 540 1201C480 1201 420 1201 360 1201C300 1201 240 1201 180 1201C120 1201 60 1201 30 1201L0 1201Z" fill="#007391"></path><path d="M0 1088L30 1097C60 1106 120 1124 180 1128C240 1132 300 1122 360 1113.8C420 1105.7 480 1099.3 540 1106.7C600 1114 660 1135 720 1134.3C780 1133.7 840 1111.3 900 1100.3C960 1089.3 1020 1089.7 1080 1089.3C1140 1089 1200 1088 1260 1086.3C1320 1084.7 1380 1082.3 1410 1081.2L1440 1080L1440 1201L1410 1201C1380 1201 1320 1201 1260 1201C1200 1201 1140 1201 1080 1201C1020 1201 960 1201 900 1201C840 1201 780 1201 720 1201C660 1201 600 1201 540 1201C480 1201 420 1201 360 1201C300 1201 240 1201 180 1201C120 1201 60 1201 30 1201L0 1201Z" fill="#006086"></path><path d="M0 1170L30 1166C60 1162 120 1154 180 1147C240 1140 300 1134 360 1132.2C420 1130.3 480 1132.7 540 1138.2C600 1143.7 660 1152.3 720 1159.8C780 1167.3 840 1173.7 900 1173.5C960 1173.3 1020 1166.7 1080 1168.5C1140 1170.3 1200 1180.7 1260 1179.3C1320 1178 1380 1165 1410 1158.5L1440 1152L1440 1201L1410 1201C1380 1201 1320 1201 1260 1201C1200 1201 1140 1201 1080 1201C1020 1201 960 1201 900 1201C840 1201 780 1201 720 1201C660 1201 600 1201 540 1201C480 1201 420 1201 360 1201C300 1201 240 1201 180 1201C120 1201 60 1201 30 1201L0 1201Z" fill="#184e77"></path></svg>