<?xml version="1.0" standalone="no"?>
<!DOCTYPE svg PUBLIC "-//W3C//DTD SVG 20010904//EN"
 "http://www.w3.org/TR/2001/REC-SVG-20010904/DTD/svg10.dtd">
<svg version="1.0" xmlns="http://www.w3.org/2000/svg"
 width="519.000000pt" height="519.000000pt" viewBox="0 0 519.000000 519.000000"
 preserveAspectRatio="xMidYMid meet">
<metadata>
Created by potrace 1.14, written by Peter Selinger 2001-2017
</metadata>
<g transform="translate(0.000000,519.000000) scale(0.100000,-0.100000)"
fill="#000000" stroke="none">
<path d="M2458 4735 c-2 -2 -43 -6 -93 -10 -49 -4 -93 -9 -97 -11 -3 -2 -28
-6 -55 -9 -38 -4 -190 -37 -273 -59 -51 -14 -127 -41 -137 -49 -7 -5 -13 -7
-13 -4 0 17 -395 -170 -410 -194 -3 -4 -17 -12 -30 -18 -70 -30 -261 -182
-390 -311 -117 -117 -140 -143 -222 -255 -4 -5 -18 -23 -31 -40 -25 -32 -107
-162 -107 -169 0 -2 -15 -30 -33 -63 -18 -32 -43 -83 -56 -113 -13 -30 -29
-68 -36 -85 -15 -34 -65 -181 -70 -204 -2 -9 -10 -43 -19 -76 -8 -33 -17 -73
-20 -90 -3 -16 -8 -40 -10 -52 -3 -12 -8 -53 -11 -90 -4 -37 -9 -77 -11 -88
-6 -27 -5 -281 1 -330 2 -22 7 -60 10 -85 6 -58 11 -88 18 -125 4 -16 9 -41
11 -55 14 -81 69 -253 121 -380 120 -289 360 -607 608 -808 103 -83 213 -162
225 -162 6 0 12 -4 14 -8 8 -20 229 -135 373 -195 60 -25 267 -92 315 -102 14
-2 45 -9 70 -15 25 -5 54 -11 66 -14 12 -2 45 -7 74 -11 29 -4 62 -8 72 -10
103 -20 407 -19 582 1 47 6 63 8 116 19 14 2 41 7 60 10 135 22 383 104 546
181 118 56 345 196 415 256 15 13 44 36 65 53 56 43 261 252 315 321 62 79
169 239 169 252 0 6 4 12 8 14 4 2 32 53 61 113 30 61 58 118 63 128 19 39 71
196 94 287 19 76 22 90 29 145 3 22 8 47 10 55 18 69 27 387 14 488 -4 31 -10
77 -13 102 -30 247 -135 547 -271 770 -41 68 -124 191 -135 200 -3 3 -17 20
-30 39 -23 33 -83 101 -160 180 -332 343 -852 599 -1330 656 -30 4 -71 9 -90
12 -37 5 -368 12 -372 8z"/>
</g>
</svg>
