<svg id="visual" viewBox="0 0 1400 1200" width="1400" height="1200" xmlns="http://www.w3.org/2000/svg" xmlns:xlink="http://www.w3.org/1999/xlink" version="1.1"><path d="M0 873L33.3 887.2C66.7 901.3 133.3 929.7 200 942.8C266.7 956 333.3 954 400 942.5C466.7 931 533.3 910 600 899.7C666.7 889.3 733.3 889.7 800 899.8C866.7 910 933.3 930 1000 917C1066.7 904 1133.3 858 1200 838.3C1266.7 818.7 1333.3 825.3 1366.7 828.7L1400 832L1400 1201L1366.7 1201C1333.3 1201 1266.7 1201 1200 1201C1133.3 1201 1066.7 1201 1000 1201C933.3 1201 866.7 1201 800 1201C733.3 1201 666.7 1201 600 1201C533.3 1201 466.7 1201 400 1201C333.3 1201 266.7 1201 200 1201C133.3 1201 66.7 1201 33.3 1201L0 1201Z" fill="#76c893"></path><path d="M0 1007L33.3 990.2C66.7 973.3 133.3 939.7 200 937.3C266.7 935 333.3 964 400 978C466.7 992 533.3 991 600 990C666.7 989 733.3 988 800 981.7C866.7 975.3 933.3 963.7 1000 949.5C1066.7 935.3 1133.3 918.7 1200 917C1266.7 915.3 1333.3 928.7 1366.7 935.3L1400 942L1400 1201L1366.7 1201C1333.3 1201 1266.7 1201 1200 1201C1133.3 1201 1066.7 1201 1000 1201C933.3 1201 866.7 1201 800 1201C733.3 1201 666.7 1201 600 1201C533.3 1201 466.7 1201 400 1201C333.3 1201 266.7 1201 200 1201C133.3 1201 66.7 1201 33.3 1201L0 1201Z" fill="#37ac9c"></path><path d="M0 944L33.3 946.7C66.7 949.3 133.3 954.7 200 967C266.7 979.3 333.3 998.7 400 997.5C466.7 996.3 533.3 974.7 600 977.5C666.7 980.3 733.3 1007.7 800 1007.7C866.7 1007.7 933.3 980.3 1000 981.7C1066.7 983 1133.3 1013 1200 1011.8C1266.7 1010.7 1333.3 978.3 1366.7 962.2L1400 946L1400 1201L1366.7 1201C1333.3 1201 1266.7 1201 1200 1201C1133.3 1201 1066.7 1201 1000 1201C933.3 1201 866.7 1201 800 1201C733.3 1201 666.7 1201 600 1201C533.3 1201 466.7 1201 400 1201C333.3 1201 266.7 1201 200 1201C133.3 1201 66.7 1201 33.3 1201L0 1201Z" fill="#008e9b"></path><path d="M0 1036L33.3 1041.3C66.7 1046.7 133.3 1057.3 200 1058C266.7 1058.7 333.3 1049.3 400 1054.8C466.7 1060.3 533.3 1080.7 600 1087.2C666.7 1093.7 733.3 1086.3 800 1073.3C866.7 1060.3 933.3 1041.7 1000 1043.2C1066.7 1044.7 1133.3 1066.3 1200 1074.8C1266.7 1083.3 1333.3 1078.7 1366.7 1076.3L1400 1074L1400 1201L1366.7 1201C1333.3 1201 1266.7 1201 1200 1201C1133.3 1201 1066.7 1201 1000 1201C933.3 1201 866.7 1201 800 1201C733.3 1201 666.7 1201 600 1201C533.3 1201 466.7 1201 400 1201C333.3 1201 266.7 1201 200 1201C133.3 1201 66.7 1201 33.3 1201L0 1201Z" fill="#006e8e"></path><path d="M0 1129L33.3 1132.7C66.7 1136.3 133.3 1143.7 200 1138.2C266.7 1132.7 333.3 1114.3 400 1104.5C466.7 1094.7 533.3 1093.3 600 1097.2C666.7 1101 733.3 1110 800 1114.7C866.7 1119.3 933.3 1119.7 1000 1122.5C1066.7 1125.3 1133.3 1130.7 1200 1135.7C1266.7 1140.7 1333.3 1145.3 1366.7 1147.7L1400 1150L1400 1201L1366.7 1201C1333.3 1201 1266.7 1201 1200 1201C1133.3 1201 1066.7 1201 1000 1201C933.3 1201 866.7 1201 800 1201C733.3 1201 666.7 1201 600 1201C533.3 1201 466.7 1201 400 1201C333.3 1201 266.7 1201 200 1201C133.3 1201 66.7 1201 33.3 1201L0 1201Z" fill="#184e77"></path></svg>